# xmcd
#
# Track frame offsets: 
#        150
#        11073
#        24690
#        37628
#        52278
#        64388
#        74993
#        92435
#        106593
#        116753
#
# Disc length: 1724 seconds
#
# Revision: 1
# Processed by: cddbd v1.4PL0 Copyright (c) Steve Scherf et al.
# Submitted via: ExactAudioCopy v0.90b3
#
DISCID=8906ba0a
DTITLE=George Jones and Johnny Paycheck - Double Trouble
DYEAR=1900
DGENRE=Country
TTITLE0=When You're Ugly Like Us (You Just Naturally Got To Be Cool
TTITLE1=Along Came Jones
TTITLE2=Proud Mary
TTITLE3=You Can Have Her
TTITLE4=Smack Dab In The Middle
TTITLE5=Mabellene
TTITLE6=Roll Over Beethoven
TTITLE7=Kansas City
TTITLE8=Tutti Fruitti
TTITLE9=You Better Move On
EXTD=
EXTT0=
EXTT1=
EXTT2=
EXTT3=
EXTT4=
EXTT5=
EXTT6=
EXTT7=
EXTT8=
EXTT9=
PLAYORDER=
